<?xml version="1.0" encoding="UTF-8" standalone="no"?>
<!-- Created with Inkscape (http://www.inkscape.org/) -->

<svg
   xmlns:dc="http://purl.org/dc/elements/1.1/"
   xmlns:cc="http://creativecommons.org/ns#"
   xmlns:rdf="http://www.w3.org/1999/02/22-rdf-syntax-ns#"
   xmlns:svg="http://www.w3.org/2000/svg"
   xmlns="http://www.w3.org/2000/svg"
   xmlns:xlink="http://www.w3.org/1999/xlink"
   xmlns:sodipodi="http://sodipodi.sourceforge.net/DTD/sodipodi-0.dtd"
   xmlns:inkscape="http://www.inkscape.org/namespaces/inkscape"
   width="256"
   height="128"
   viewBox="0 0 67.733332 33.866668"
   version="1.1"
   id="svg8"
   inkscape:version="0.92.3 (2405546, 2018-03-11)"
   sodipodi:docname="catlock_help_logo.svg"
   inkscape:export-filename="/home/pboeckmann/wc/derpotp/icons/catlock_256.png"
   inkscape:export-xdpi="192.00002"
   inkscape:export-ydpi="192.00002">
  <defs
     id="defs2">
    <linearGradient
       id="linearGradient5479"
       inkscape:collect="always">
      <stop
         id="stop5487"
         offset="0"
         style="stop-color:#000000;stop-opacity:1" />
      <stop
         id="stop5489"
         offset="1"
         style="stop-color:#1d1d1d;stop-opacity:0.04149378" />
    </linearGradient>
    <linearGradient
       inkscape:collect="always"
       id="linearGradient5479-7">
      <stop
         style="stop-color:#ffffff;stop-opacity:0.99170125"
         offset="0"
         id="stop5475" />
      <stop
         style="stop-color:#1d1d1d;stop-opacity:1"
         offset="1"
         id="stop5477" />
    </linearGradient>
    <linearGradient
       inkscape:collect="always"
       id="linearGradient1729">
      <stop
         style="stop-color:#fcfcfc;stop-opacity:1"
         offset="0"
         id="stop1725" />
      <stop
         style="stop-color:#6a6a6a;stop-opacity:0.97254902"
         offset="1"
         id="stop1727" />
    </linearGradient>
    <linearGradient
       inkscape:collect="always"
       id="linearGradient1674">
      <stop
         style="stop-color:#00ff3d;stop-opacity:1;"
         offset="0"
         id="stop1670" />
      <stop
         style="stop-color:#00ff3d;stop-opacity:0;"
         offset="1"
         id="stop1672" />
    </linearGradient>
    <linearGradient
       id="linearGradient1662"
       inkscape:collect="always">
      <stop
         id="stop1658"
         offset="0"
         style="stop-color:#00ff3d;stop-opacity:1" />
      <stop
         id="stop1660"
         offset="1"
         style="stop-color:#005000;stop-opacity:1" />
    </linearGradient>
    <radialGradient
       inkscape:collect="always"
       xlink:href="#linearGradient1662"
       id="radialGradient1625"
       cx="24.15921"
       cy="279.13525"
       fx="24.15921"
       fy="279.13525"
       r="2.8871067"
       gradientTransform="matrix(1.1242036,0.45923335,-0.50151192,1.2277016,136.84279,-74.451398)"
       gradientUnits="userSpaceOnUse" />
    <radialGradient
       inkscape:collect="always"
       xlink:href="#linearGradient1662"
       id="radialGradient1668"
       gradientUnits="userSpaceOnUse"
       gradientTransform="matrix(-1.1242036,0.45923335,0.50151192,1.2277016,-102.06341,-74.451398)"
       cx="24.15921"
       cy="279.13525"
       fx="24.15921"
       fy="279.13525"
       r="2.8871067" />
    <radialGradient
       inkscape:collect="always"
       xlink:href="#linearGradient1674"
       id="radialGradient1676"
       cx="17.469883"
       cy="292.40405"
       fx="17.469883"
       fy="292.40405"
       r="1.7987815"
       gradientTransform="matrix(1.3993186,0,0,0.90917313,-6.9760487,26.55815)"
       gradientUnits="userSpaceOnUse" />
    <radialGradient
       inkscape:collect="always"
       xlink:href="#linearGradient1729"
       id="radialGradient1731"
       cx="12.151052"
       cy="281.79477"
       fx="12.151052"
       fy="281.79477"
       r="11.642704"
       gradientTransform="matrix(0.9147804,0,0,0.85306068,1.1147344,41.357465)"
       gradientUnits="userSpaceOnUse" />
    <radialGradient
       inkscape:collect="always"
       xlink:href="#linearGradient1662"
       id="radialGradient1749"
       cx="17.375673"
       cy="282.79437"
       fx="17.375673"
       fy="282.79437"
       r="1.649286"
       gradientTransform="matrix(1.3511466,0,0,2.894477,-6.0679905,-534.03557)"
       gradientUnits="userSpaceOnUse" />
    <radialGradient
       inkscape:collect="always"
       xlink:href="#linearGradient5479-7"
       id="radialGradient5483"
       cx="15.43821"
       cy="260.8161"
       fx="15.43821"
       fy="260.8161"
       r="8.598341"
       gradientTransform="matrix(1.7917151,-0.25841703,0.07238212,0.50185602,-31.101086,137.70389)"
       gradientUnits="userSpaceOnUse" />
    <radialGradient
       inkscape:collect="always"
       xlink:href="#linearGradient5479"
       id="radialGradient5492"
       gradientUnits="userSpaceOnUse"
       gradientTransform="matrix(0.43721533,-1.0665964,1.129735,0.46309688,-304.55092,161.49367)"
       cx="14.446234"
       cy="279.81064"
       fx="14.446234"
       fy="279.81064"
       r="8.598341" />
  </defs>
  <sodipodi:namedview
     id="base"
     pagecolor="#ffffff"
     bordercolor="#666666"
     borderopacity="1.0"
     inkscape:pageopacity="0.0"
     inkscape:pageshadow="2"
     inkscape:zoom="3.959798"
     inkscape:cx="63.362872"
     inkscape:cy="63.491586"
     inkscape:document-units="mm"
     inkscape:current-layer="layer1"
     showgrid="false"
     units="px"
     inkscape:snap-global="false"
     showguides="true"
     inkscape:guide-bbox="true"
     inkscape:snap-page="true"
     inkscape:window-width="1600"
     inkscape:window-height="824"
     inkscape:window-x="0"
     inkscape:window-y="25"
     inkscape:window-maximized="1" />
  <metadata
     id="metadata5">
    <rdf:RDF>
      <cc:Work
         rdf:about="">
        <dc:format>image/svg+xml</dc:format>
        <dc:type
           rdf:resource="http://purl.org/dc/dcmitype/StillImage" />
        <dc:title />
      </cc:Work>
    </rdf:RDF>
  </metadata>
  <g
     inkscape:label="Ebene 1"
     inkscape:groupmode="layer"
     id="layer1"
     transform="translate(0,-263.13332)">
    <rect
       style="opacity:1;fill:#ffffff;fill-opacity:1;stroke:none;stroke-width:0.53135383;stroke-linecap:butt;stroke-linejoin:round;stroke-miterlimit:4;stroke-dasharray:none;stroke-opacity:1"
       id="rect886"
       width="37.75182"
       height="33.876411"
       x="1.937704"
       y="263.1904"
       ry="0"
       inkscape:export-filename="/home/pboeckmann/wc/lokkat/res/img/lokkat_help_logo.png"
       inkscape:export-xdpi="299.9137"
       inkscape:export-ydpi="299.9137" />
    <path
       style="fill:url(#radialGradient1731);fill-opacity:1;stroke:#000000;stroke-width:0.26458332px;stroke-linecap:butt;stroke-linejoin:miter;stroke-opacity:1"
       d="m 14.733233,276.98818 -1.336348,-1.9377 -3.0736,-1.33635 -2.7061034,-0.56795 -1.3363477,3.00678 c 0,0 0.1336347,3.77519 0.200452,3.90882 0.066817,0.13363 0.334087,2.13816 0.334087,2.13816 l -0.8018087,3.27405 0.6013567,4.74403 1.6704344,1.80407 2.8397387,2.43884 5.311982,1.57021 4.911077,-0.63477 c 0,0 3.708365,-1.9377 3.908817,-2.03793 0.200452,-0.10023 2.939964,-3.0736 2.939964,-3.0736 l 0.835218,-2.77292 -0.03341,-3.17383 -1.035669,-2.13815 0.734991,-2.33861 0.100227,-3.94223 -1.236123,-2.77292 -0.868624,0.16704 -2.171566,0.70159 -2.104748,0.66817 -1.937704,1.16931 -0.400904,1.43657 z"
       id="path1664"
       inkscape:connector-curvature="0"
       inkscape:export-filename="/home/pboeckmann/wc/lokkat/res/img/lokkat_help_logo.png"
       inkscape:export-xdpi="299.9137"
       inkscape:export-ydpi="299.9137" />
    <path
       style="color:#000000;font-style:normal;font-variant:normal;font-weight:normal;font-stretch:normal;font-size:medium;line-height:normal;font-family:sans-serif;font-variant-ligatures:normal;font-variant-position:normal;font-variant-caps:normal;font-variant-numeric:normal;font-variant-alternates:normal;font-feature-settings:normal;text-indent:0;text-align:start;text-decoration:none;text-decoration-line:none;text-decoration-style:solid;text-decoration-color:#000000;letter-spacing:normal;word-spacing:normal;text-transform:none;writing-mode:lr-tb;direction:ltr;text-orientation:mixed;dominant-baseline:auto;baseline-shift:baseline;text-anchor:start;white-space:normal;shape-padding:0;clip-rule:nonzero;display:inline;overflow:visible;visibility:visible;opacity:1;isolation:auto;mix-blend-mode:normal;color-interpolation:sRGB;color-interpolation-filters:linearRGB;solid-color:#000000;solid-opacity:1;vector-effect:none;fill:#000000;fill-opacity:1;fill-rule:nonzero;stroke:none;stroke-width:3.64395213;stroke-linecap:round;stroke-linejoin:miter;stroke-miterlimit:4;stroke-dasharray:none;stroke-dashoffset:0;stroke-opacity:1;color-rendering:auto;image-rendering:auto;shape-rendering:auto;text-rendering:auto;enable-background:accumulate"
       d="m 17.422317,263.5994 c -5.115074,0 -9.2126913,4.26173 -9.4287727,9.46159 0.7535265,0.0516 2.2093797,0.35941 3.6337757,1.03246 v -0.60097 c 0,-3.54749 2.610849,-6.24908 5.794997,-6.24908 3.184147,0 5.795533,2.70159 5.795533,6.24908 v 0.62518 c 1.410405,-0.67479 2.858691,-0.99148 3.633239,-1.0529 -0.214268,-5.20156 -4.312471,-9.46536 -9.428772,-9.46536 z"
       id="rect1521"
       inkscape:connector-curvature="0"
       inkscape:export-filename="/home/pboeckmann/wc/lokkat/res/img/lokkat_help_logo.png"
       inkscape:export-xdpi="299.9137"
       inkscape:export-ydpi="299.9137" />
    <path
       style="opacity:1;fill:none;fill-opacity:1;stroke:#000000;stroke-width:1.31314349;stroke-linejoin:miter;stroke-miterlimit:4;stroke-dasharray:none;stroke-opacity:1"
       d="m 7.828873,273.05166 c -0.1614914,-0.003 -0.2745846,0.009 -0.3274175,0.0352 -0.4154688,0.20634 -2.5634747,3.96358 -0.4788272,9.22537 a 11.57082,9.5418142 0 0 0 -1.1099117,4.05159 11.57082,9.5418142 0 0 0 11.5711594,9.54176 11.57082,9.5418142 0 0 0 11.570734,-9.54176 11.57082,9.5418142 0 0 0 -1.153172,-4.13344 c 2.030325,-5.21894 -0.09817,-8.93825 -0.511484,-9.14352 -0.422664,-0.20992 -4.702044,0.47217 -6.76253,2.9387 -0.286833,0.34336 -0.35499,0.71852 -0.260832,1.10949 a 11.57082,9.5418142 0 0 0 -2.882716,-0.31342 11.57082,9.5418142 0 0 0 -2.960755,0.32275 c 0.09754,-0.39437 0.02999,-0.77271 -0.259135,-1.11882 -1.802925,-2.15821 -5.304673,-2.95023 -6.435113,-2.9739 z"
       id="path1379"
       inkscape:connector-curvature="0"
       inkscape:export-filename="/home/pboeckmann/wc/lokkat/res/img/lokkat_help_logo.png"
       inkscape:export-xdpi="299.9137"
       inkscape:export-ydpi="299.9137" />
    <path
       style="fill:none;stroke:#000000;stroke-width:0.7038033;stroke-linecap:round;stroke-linejoin:round;stroke-miterlimit:4;stroke-dasharray:none;stroke-opacity:1"
       d="m 27.679843,287.51524 c 1.31611,-0.4387 2.358034,-0.98708 3.728983,-0.54838"
       id="path1381"
       inkscape:connector-curvature="0"
       inkscape:export-filename="/home/pboeckmann/wc/lokkat/res/img/lokkat_help_logo.png"
       inkscape:export-xdpi="299.9137"
       inkscape:export-ydpi="299.9137" />
    <path
       inkscape:connector-curvature="0"
       id="path1383"
       d="m 7.1472798,287.51524 c -1.3161104,-0.4387 -2.3580339,-0.98708 -3.7289837,-0.54838"
       style="fill:none;stroke:#000000;stroke-width:0.7038033;stroke-linecap:round;stroke-linejoin:round;stroke-miterlimit:4;stroke-dasharray:none;stroke-opacity:1"
       inkscape:export-filename="/home/pboeckmann/wc/lokkat/res/img/lokkat_help_logo.png"
       inkscape:export-xdpi="299.9137"
       inkscape:export-ydpi="299.9137" />
    <path
       inkscape:connector-curvature="0"
       id="path1385"
       d="m 27.67119,289.21647 c 1.386826,0.0362 2.553287,-0.12403 3.692537,0.75579"
       style="fill:none;stroke:#000000;stroke-width:0.7038033;stroke-linecap:round;stroke-linejoin:round;stroke-miterlimit:4;stroke-dasharray:none;stroke-opacity:1"
       inkscape:export-filename="/home/pboeckmann/wc/lokkat/res/img/lokkat_help_logo.png"
       inkscape:export-xdpi="299.9137"
       inkscape:export-ydpi="299.9137" />
    <path
       style="fill:none;stroke:#000000;stroke-width:0.7038033;stroke-linecap:round;stroke-linejoin:round;stroke-miterlimit:4;stroke-dasharray:none;stroke-opacity:1"
       d="m 7.539206,289.16162 c -1.3868256,0.0363 -2.553287,-0.12402 -3.6925374,0.7558"
       id="path1387"
       inkscape:connector-curvature="0"
       inkscape:export-filename="/home/pboeckmann/wc/lokkat/res/img/lokkat_help_logo.png"
       inkscape:export-xdpi="299.9137"
       inkscape:export-ydpi="299.9137" />
    <path
       style="fill:url(#radialGradient1625);fill-opacity:1;stroke:#000000;stroke-width:0.64600003;stroke-linecap:butt;stroke-linejoin:miter;stroke-miterlimit:4;stroke-dasharray:none;stroke-opacity:1"
       d="m 26.537768,280.7786 c 1.407593,-3.34911 0.03273,-5.75526 -0.229144,-5.88532 -0.261878,-0.13007 -2.91339,0.29263 -4.190045,1.82087 -1.276654,1.52823 4.419189,4.06445 4.419189,4.06445 z"
       id="path1394"
       inkscape:connector-curvature="0"
       inkscape:export-filename="/home/pboeckmann/wc/lokkat/res/img/lokkat_help_logo.png"
       inkscape:export-xdpi="299.9137"
       inkscape:export-ydpi="299.9137" />
    <path
       style="fill:#005000;fill-opacity:1;stroke:none;stroke-width:0.21714741px;stroke-linecap:butt;stroke-linejoin:miter;stroke-opacity:1"
       d="m 17.46988,290.3942 c -0.325674,0.33363 -1.408744,0.95868 -2.358086,0.78163 0.190676,1.54974 1.110094,2.51649 2.358086,2.50823 1.24821,0.008 2.167387,-0.95831 2.358084,-2.50823 -0.949342,0.17705 -2.032412,-0.448 -2.358084,-0.78163 z"
       id="path1495"
       inkscape:connector-curvature="0"
       inkscape:export-filename="/home/pboeckmann/wc/lokkat/res/img/lokkat_help_logo.png"
       inkscape:export-xdpi="299.9137"
       inkscape:export-ydpi="299.9137" />
    <path
       id="path1500"
       d="m 17.469878,290.76973 c -0.463369,0 -1.879344,-0.0632 -2.343602,0.77685 -0.750649,1.3582 1.103275,2.50103 2.343602,2.49281 1.240542,0.01 3.094241,-1.13441 2.343599,-2.49281 -0.464203,-0.84004 -1.880232,-0.77685 -2.343599,-0.77685 z"
       style="fill:url(#radialGradient1676);fill-opacity:1;stroke:none;stroke-width:0.21581362px;stroke-linecap:butt;stroke-linejoin:miter;stroke-opacity:1"
       inkscape:connector-curvature="0"
       sodipodi:nodetypes="sscss"
       inkscape:export-filename="/home/pboeckmann/wc/lokkat/res/img/lokkat_help_logo.png"
       inkscape:export-xdpi="299.9137"
       inkscape:export-ydpi="299.9137" />
    <path
       style="opacity:1;fill:#000000;fill-opacity:1;stroke:none;stroke-width:0.21714741px;stroke-linecap:butt;stroke-linejoin:miter;stroke-opacity:1"
       d="m 13.678706,288.36903 c -0.537004,1.44246 -0.05772,2.23806 0.679434,2.54598 0.132559,2.37044 1.535193,3.59424 3.098168,3.59099 v 0.001 c 0.0046,5e-5 0.0091,-4.6e-4 0.01358,-4.3e-4 0.0047,-3e-5 0.0093,4.8e-4 0.01399,4.3e-4 v -0.001 c 1.562974,0.003 2.965608,-1.22055 3.098167,-3.59099 0.737156,-0.30792 1.216439,-1.10352 0.679435,-2.54598 0.24488,2.31005 -2.733147,2.48193 -3.791598,0.35245 -1.058453,2.12948 -4.036055,1.9576 -3.791175,-0.35245 z m 3.791174,2.02517 c 0.325672,0.33363 1.408742,0.95868 2.358084,0.78163 -0.190697,1.54992 -1.109874,2.5167 -2.358084,2.50823 -1.247992,0.008 -2.16741,-0.95849 -2.358086,-2.50823 0.949342,0.17705 2.032412,-0.448 2.358086,-0.78163 z"
       id="path1440"
       inkscape:connector-curvature="0"
       inkscape:export-filename="/home/pboeckmann/wc/lokkat/res/img/lokkat_help_logo.png"
       inkscape:export-xdpi="299.9137"
       inkscape:export-ydpi="299.9137" />
    <path
       style="opacity:1;fill:#000000;fill-opacity:1;stroke:none;stroke-width:1.31314349;stroke-linecap:round;stroke-linejoin:miter;stroke-miterlimit:4;stroke-dasharray:none;stroke-opacity:1"
       d="m 18.623301,288.04994 c 10e-7,0.19273 -0.266214,0.23014 -0.474974,0.35645 -0.208759,0.12631 -0.360064,0.34152 -0.678622,0.34152 -0.318557,0 -0.442444,-0.20151 -0.651203,-0.32781 -0.20876,-0.12631 -0.502394,-0.17742 -0.502393,-0.37016 5e-6,-0.38548 0.516486,-0.69798 1.153596,-0.69798 0.637111,0 1.153591,0.3125 1.153596,0.69798 z"
       id="path1445"
       inkscape:connector-curvature="0"
       sodipodi:nodetypes="cssscsc"
       inkscape:export-filename="/home/pboeckmann/wc/lokkat/res/img/lokkat_help_logo.png"
       inkscape:export-xdpi="299.9137"
       inkscape:export-ydpi="299.9137" />
    <path
       style="color:#000000;font-style:normal;font-variant:normal;font-weight:normal;font-stretch:normal;font-size:medium;line-height:normal;font-family:sans-serif;font-variant-ligatures:normal;font-variant-position:normal;font-variant-caps:normal;font-variant-numeric:normal;font-variant-alternates:normal;font-feature-settings:normal;text-indent:0;text-align:start;text-decoration:none;text-decoration-line:none;text-decoration-style:solid;text-decoration-color:#000000;letter-spacing:normal;word-spacing:normal;text-transform:none;writing-mode:lr-tb;direction:ltr;text-orientation:mixed;dominant-baseline:auto;baseline-shift:baseline;text-anchor:start;white-space:normal;shape-padding:0;clip-rule:nonzero;display:inline;overflow:visible;visibility:visible;opacity:1;isolation:auto;mix-blend-mode:normal;color-interpolation:sRGB;color-interpolation-filters:linearRGB;solid-color:#000000;solid-opacity:1;vector-effect:none;fill:url(#radialGradient5483);fill-opacity:1;fill-rule:nonzero;stroke:none;stroke-width:1.97814536;stroke-linecap:round;stroke-linejoin:miter;stroke-miterlimit:4;stroke-dasharray:none;stroke-dashoffset:0;stroke-opacity:1;color-rendering:auto;image-rendering:auto;shape-rendering:auto;text-rendering:auto;enable-background:accumulate"
       d="m 17.422317,264.43333 c -4.680515,0 -8.4399103,3.9159 -8.5980723,8.74334 0.5637518,0.10811 1.2504133,0.28884 1.9691473,0.56115 v -0.24534 c 0,-3.96946 2.971219,-7.08032 6.628925,-7.08032 3.657704,0 6.629462,3.11086 6.629462,7.08032 v 0.26417 c 0.714417,-0.27402 1.402485,-0.46032 1.969147,-0.57191 -0.154238,-4.83114 -3.915492,-8.75141 -8.598609,-8.75141 z"
       id="rect1531"
       inkscape:connector-curvature="0"
       inkscape:export-filename="/home/pboeckmann/wc/lokkat/res/img/lokkat_help_logo.png"
       inkscape:export-xdpi="299.9137"
       inkscape:export-ydpi="299.9137" />
    <path
       style="opacity:1;fill:#000000;fill-opacity:1;stroke:#000000;stroke-width:0.7028842;stroke-linecap:round;stroke-linejoin:miter;stroke-miterlimit:4;stroke-dasharray:none;stroke-opacity:1"
       d="m 17.375683,278.58572 a 1.9095288,1.9095288 0 0 0 -1.909374,1.90937 1.9095288,1.9095288 0 0 0 1.097355,1.72611 l -0.258831,3.05071 h 2.411811 l -0.404318,-3.11556 a 1.9095288,1.9095288 0 0 0 0.972731,-1.66126 1.9095288,1.9095288 0 0 0 -1.909374,-1.90937 z"
       id="circle1556"
       inkscape:connector-curvature="0"
       inkscape:export-filename="/home/pboeckmann/wc/lokkat/res/img/lokkat_help_logo.png"
       inkscape:export-xdpi="299.9137"
       inkscape:export-ydpi="299.9137" />
    <g
       id="g1588"
       transform="matrix(1.0411291,0,0,1.0411291,-0.4210633,-11.421101)"
       inkscape:export-filename="/home/pboeckmann/wc/lokkat/res/img/lokkat_help_logo.png"
       inkscape:export-xdpi="299.9137"
       inkscape:export-ydpi="299.9137">
      <circle
         style="opacity:1;fill:#000000;fill-opacity:0.99585063;stroke:none;stroke-width:1.21985495;stroke-linecap:round;stroke-linejoin:miter;stroke-miterlimit:4;stroke-dasharray:none;stroke-opacity:1"
         id="circle1485"
         cx="11.282221"
         cy="285.15738"
         r="3.3139849" />
      <circle
         r="2.7170613"
         cy="285.15738"
         cx="11.282221"
         id="circle1487"
         style="opacity:1;fill:#ffffff;fill-opacity:1;stroke:none;stroke-width:1.00013149;stroke-linecap:round;stroke-linejoin:miter;stroke-miterlimit:4;stroke-dasharray:none;stroke-opacity:1" />
      <ellipse
         ry="2.345839"
         rx="1.9206158"
         style="opacity:1;fill:#000000;fill-opacity:1;stroke:none;stroke-width:0.7813164;stroke-linecap:round;stroke-linejoin:miter;stroke-miterlimit:4;stroke-dasharray:none;stroke-opacity:1"
         id="circle1489"
         cx="11.282221"
         cy="285.18057" />
      <ellipse
         cy="285.18057"
         cx="11.282221"
         id="ellipse1565"
         style="opacity:1;fill:#000000;fill-opacity:1;stroke:none;stroke-width:0.7813164;stroke-linecap:round;stroke-linejoin:miter;stroke-miterlimit:4;stroke-dasharray:none;stroke-opacity:1"
         rx="1.9206158"
         ry="2.345839" />
    </g>
    <circle
       style="opacity:1;fill:#000000;fill-opacity:0.99585063;stroke:none;stroke-width:1.27002645;stroke-linecap:round;stroke-linejoin:miter;stroke-miterlimit:4;stroke-dasharray:none;stroke-opacity:1"
       id="circle1590"
       cx="23.673065"
       cy="285.46454"
       r="3.4502861"
       inkscape:export-filename="/home/pboeckmann/wc/lokkat/res/img/lokkat_help_logo.png"
       inkscape:export-xdpi="299.9137"
       inkscape:export-ydpi="299.9137" />
    <circle
       r="2.8288116"
       cy="285.46454"
       cx="23.673065"
       id="circle1592"
       style="opacity:1;fill:#ffffff;fill-opacity:1;stroke:none;stroke-width:1.04126596;stroke-linecap:round;stroke-linejoin:miter;stroke-miterlimit:4;stroke-dasharray:none;stroke-opacity:1"
       inkscape:export-filename="/home/pboeckmann/wc/lokkat/res/img/lokkat_help_logo.png"
       inkscape:export-xdpi="299.9137"
       inkscape:export-ydpi="299.9137" />
    <ellipse
       ry="2.4423213"
       rx="1.999609"
       style="opacity:1;fill:#000000;fill-opacity:1;stroke:none;stroke-width:0.81345123;stroke-linecap:round;stroke-linejoin:miter;stroke-miterlimit:4;stroke-dasharray:none;stroke-opacity:1"
       id="ellipse1594"
       cx="23.673065"
       cy="285.48868"
       inkscape:export-filename="/home/pboeckmann/wc/lokkat/res/img/lokkat_help_logo.png"
       inkscape:export-xdpi="299.9137"
       inkscape:export-ydpi="299.9137" />
    <path
       inkscape:connector-curvature="0"
       id="path1666"
       d="m 8.2416088,280.7786 c -1.407593,-3.34911 -0.03273,-5.75526 0.229144,-5.88532 0.261878,-0.13007 2.9133902,0.29263 4.1900452,1.82087 1.276654,1.52823 -4.4191892,4.06445 -4.4191892,4.06445 z"
       style="fill:url(#radialGradient1668);fill-opacity:1;stroke:#000000;stroke-width:0.64600003;stroke-linecap:butt;stroke-linejoin:miter;stroke-miterlimit:4;stroke-dasharray:none;stroke-opacity:1"
       inkscape:export-filename="/home/pboeckmann/wc/lokkat/res/img/lokkat_help_logo.png"
       inkscape:export-xdpi="299.9137"
       inkscape:export-ydpi="299.9137" />
    <ellipse
       cy="285.48868"
       cx="23.673065"
       id="ellipse1690"
       style="opacity:1;fill:#000000;fill-opacity:1;stroke:none;stroke-width:0.81345123;stroke-linecap:round;stroke-linejoin:miter;stroke-miterlimit:4;stroke-dasharray:none;stroke-opacity:1"
       rx="1.999609"
       ry="2.4423213"
       inkscape:export-filename="/home/pboeckmann/wc/lokkat/res/img/lokkat_help_logo.png"
       inkscape:export-xdpi="299.9137"
       inkscape:export-ydpi="299.9137" />
    <path
       inkscape:connector-curvature="0"
       id="path1733"
       d="m 17.409092,279.10792 a 1.7257504,1.7257504 0 0 0 -1.72561,1.72561 1.7257504,1.7257504 0 0 0 0.991743,1.55998 l -0.23392,2.7571 h 2.179691 l -0.365407,-2.8157 a 1.7257504,1.7257504 0 0 0 0.879113,-1.50138 1.7257504,1.7257504 0 0 0 -1.72561,-1.72561 z"
       style="opacity:1;fill:url(#radialGradient1749);fill-opacity:1;stroke:none;stroke-width:0.63523668;stroke-linecap:round;stroke-linejoin:miter;stroke-miterlimit:4;stroke-dasharray:none;stroke-opacity:1"
       inkscape:export-filename="/home/pboeckmann/wc/lokkat/res/img/lokkat_help_logo.png"
       inkscape:export-xdpi="299.9137"
       inkscape:export-ydpi="299.9137" />
    <path
       inkscape:connector-curvature="0"
       id="path5485"
       d="m 17.422317,264.43333 c -4.680515,0 -8.4399103,3.9159 -8.5980723,8.74334 0.5637518,0.10811 1.2504133,0.28884 1.9691473,0.56115 v -0.24534 c 0,-3.96946 2.971219,-7.08032 6.628925,-7.08032 3.657704,0 6.629462,3.11086 6.629462,7.08032 v 0.26417 c 0.714417,-0.27402 1.402485,-0.46032 1.969147,-0.57191 -0.154238,-4.83114 -3.915492,-8.75141 -8.598609,-8.75141 z"
       style="color:#000000;font-style:normal;font-variant:normal;font-weight:normal;font-stretch:normal;font-size:medium;line-height:normal;font-family:sans-serif;font-variant-ligatures:normal;font-variant-position:normal;font-variant-caps:normal;font-variant-numeric:normal;font-variant-alternates:normal;font-feature-settings:normal;text-indent:0;text-align:start;text-decoration:none;text-decoration-line:none;text-decoration-style:solid;text-decoration-color:#000000;letter-spacing:normal;word-spacing:normal;text-transform:none;writing-mode:lr-tb;direction:ltr;text-orientation:mixed;dominant-baseline:auto;baseline-shift:baseline;text-anchor:start;white-space:normal;shape-padding:0;clip-rule:nonzero;display:inline;overflow:visible;visibility:visible;opacity:1;isolation:auto;mix-blend-mode:normal;color-interpolation:sRGB;color-interpolation-filters:linearRGB;solid-color:#000000;solid-opacity:1;vector-effect:none;fill:url(#radialGradient5492);fill-opacity:1;fill-rule:nonzero;stroke:none;stroke-width:1.97814536;stroke-linecap:round;stroke-linejoin:miter;stroke-miterlimit:4;stroke-dasharray:none;stroke-dashoffset:0;stroke-opacity:1;color-rendering:auto;image-rendering:auto;shape-rendering:auto;text-rendering:auto;enable-background:accumulate"
       inkscape:export-filename="/home/pboeckmann/wc/lokkat/res/img/lokkat_help_logo.png"
       inkscape:export-xdpi="299.9137"
       inkscape:export-ydpi="299.9137" />
    <path
       style="color:#000000;font-style:normal;font-variant:normal;font-weight:normal;font-stretch:normal;font-size:medium;line-height:normal;font-family:sans-serif;font-variant-ligatures:normal;font-variant-position:normal;font-variant-caps:normal;font-variant-numeric:normal;font-variant-alternates:normal;font-feature-settings:normal;text-indent:0;text-align:start;text-decoration:none;text-decoration-line:none;text-decoration-style:solid;text-decoration-color:#000000;letter-spacing:normal;word-spacing:normal;text-transform:none;writing-mode:lr-tb;direction:ltr;text-orientation:mixed;dominant-baseline:auto;baseline-shift:baseline;text-anchor:start;white-space:normal;shape-padding:0;clip-rule:nonzero;display:inline;overflow:visible;visibility:visible;opacity:1;isolation:auto;mix-blend-mode:normal;color-interpolation:sRGB;color-interpolation-filters:linearRGB;solid-color:#000000;solid-opacity:1;vector-effect:none;fill:#ffffff;fill-opacity:0.48132779;fill-rule:nonzero;stroke:none;stroke-width:7.47645473;stroke-linecap:round;stroke-linejoin:miter;stroke-miterlimit:4;stroke-dasharray:none;stroke-dashoffset:0;stroke-opacity:1;color-rendering:auto;image-rendering:auto;shape-rendering:auto;text-rendering:auto;enable-background:accumulate"
       d="m 66.029297,6.3359375 c -17.041211,0 -30.512175,14.0316225 -31.552735,31.8632815 1.093835,0.24144 2.275844,0.551949 3.519532,0.933593 v -0.496093 c 0,-15.049814 14.654331,-28.404297 28.21875,-28.404297 13.468576,0 27.272323,14.031569 27.466797,28.96289 1.3397,-0.419197 2.610597,-0.754371 3.779297,-1.011718 C 96.205112,20.565071 82.910808,6.3359375 66.029297,6.3359375 Z"
       transform="matrix(0.26458333,0,0,0.26458333,0,263.13332)"
       id="path5498"
       inkscape:connector-curvature="0"
       inkscape:export-filename="/home/pboeckmann/wc/lokkat/res/img/lokkat_help_logo.png"
       inkscape:export-xdpi="299.9137"
       inkscape:export-ydpi="299.9137" />
    <path
       style="opacity:1;fill:none;fill-opacity:1;stroke:#000000;stroke-width:0.51999998;stroke-linecap:butt;stroke-linejoin:round;stroke-miterlimit:4;stroke-dasharray:none;stroke-opacity:1"
       d="m 34.410821,265.66236 a 3.4745035,8.9869374 0 0 0 -3.474206,8.98705 3.4745035,8.9869374 0 0 0 1.915646,8.0207 c -0.855051,0.86141 -2.573488,1.63401 -2.573488,1.63401 1.698948,0.04 2.750574,-0.37773 3.403928,-0.87179 a 3.4745035,8.9869374 0 0 0 0.72812,0.20413 3.4745035,8.9869374 0 0 0 3.474723,-8.98705 3.4745035,8.9869374 0 0 0 -3.474723,-8.98705 z"
       id="path864"
       inkscape:connector-curvature="0"
       inkscape:export-filename="/home/pboeckmann/wc/lokkat/res/img/lokkat_help_logo.png"
       inkscape:export-xdpi="299.9137"
       inkscape:export-ydpi="299.9137" />
    <flowRoot
       xml:space="preserve"
       id="flowRoot871"
       style="font-style:normal;font-weight:normal;font-size:5.33333349px;line-height:1.25;font-family:sans-serif;text-align:center;letter-spacing:0px;word-spacing:0px;text-anchor:middle;fill:#000000;fill-opacity:1;stroke:none"
       transform="matrix(0.96981083,0,0,0.96981083,-91.30413,249.29978)"
       inkscape:export-filename="/home/pboeckmann/wc/lokkat/res/img/lokkat_help_logo.png"
       inkscape:export-xdpi="299.9137"
       inkscape:export-ydpi="299.9137"><flowRegion
         id="flowRegion873"
         style="text-align:center;text-anchor:middle"><rect
           id="rect875"
           width="11.607142"
           height="50"
           x="123.75"
           y="20.321428"
           style="text-align:center;text-anchor:middle" /></flowRegion><flowPara
         id="flowPara889"
         style="font-style:normal;font-variant:normal;font-weight:normal;font-stretch:normal;font-family:Purisa;-inkscape-font-specification:Purisa;text-align:center;text-anchor:middle">何</flowPara><flowPara
         style="font-style:normal;font-variant:normal;font-weight:normal;font-stretch:normal;font-family:Purisa;-inkscape-font-specification:Purisa;text-align:center;text-anchor:middle"
         id="flowPara884">?</flowPara></flowRoot>  </g>
</svg>
